<mxfile host="app.diagrams.net" agent="Mozilla/5.0 (Windows NT 10.0; Win64; x64) AppleWebKit/537.36 (KHTML, like Gecko) Chrome/133.0.0.0 Safari/537.36 Edg/133.0.0.0" version="26.1.0">
  <diagram name="Page-1" id="9ExG4_KJDwMNpGV15gO4">
    <mxGraphModel dx="1638" dy="858" grid="1" gridSize="10" guides="1" tooltips="1" connect="1" arrows="1" fold="1" page="1" pageScale="1" pageWidth="850" pageHeight="1100" math="0" shadow="0">
      <root>
        <mxCell id="0" />
        <mxCell id="1" parent="0" />
        <mxCell id="W9XjlmWNhwLPNRVk3zMQ-1" value="Giảng viên" style="swimlane;startSize=20;whiteSpace=wrap;html=1;fontStyle=1" vertex="1" parent="1">
          <mxGeometry x="60" y="150" width="390" height="1220" as="geometry" />
        </mxCell>
        <mxCell id="W9XjlmWNhwLPNRVk3zMQ-2" value="" style="ellipse;html=1;shape=startState;fillColor=#000000;strokeColor=#ff0000;fontStyle=1" vertex="1" parent="W9XjlmWNhwLPNRVk3zMQ-1">
          <mxGeometry x="170" y="30" width="30" height="30" as="geometry" />
        </mxCell>
        <mxCell id="W9XjlmWNhwLPNRVk3zMQ-3" value="" style="edgeStyle=orthogonalEdgeStyle;html=1;verticalAlign=bottom;endArrow=open;endSize=8;strokeColor=#ff0000;rounded=0;fontStyle=1" edge="1" parent="W9XjlmWNhwLPNRVk3zMQ-1" source="W9XjlmWNhwLPNRVk3zMQ-2">
          <mxGeometry relative="1" as="geometry">
            <mxPoint x="185" y="120" as="targetPoint" />
          </mxGeometry>
        </mxCell>
        <mxCell id="W9XjlmWNhwLPNRVk3zMQ-16" value="Hệ Thống" style="swimlane;startSize=20;whiteSpace=wrap;html=1;fontStyle=1" vertex="1" parent="1">
          <mxGeometry x="451" y="150" width="380" height="1220" as="geometry" />
        </mxCell>
        <mxCell id="W9XjlmWNhwLPNRVk3zMQ-29" value="&lt;span style=&quot;font-size: 24px;&quot;&gt;Tạo và chỉnh sửa khóa học&lt;/span&gt;" style="text;html=1;align=center;verticalAlign=middle;whiteSpace=wrap;rounded=0;fontStyle=1" vertex="1" parent="1">
          <mxGeometry x="189" y="100" width="541" height="30" as="geometry" />
        </mxCell>
      </root>
    </mxGraphModel>
  </diagram>
</mxfile>
